<mxfile host="65bd71144e">
    <diagram id="hIu8rQKY8zNP8rw0bHax" name="Page-1">
        <mxGraphModel dx="1118" dy="790" grid="1" gridSize="10" guides="1" tooltips="1" connect="1" arrows="1" fold="1" page="1" pageScale="1" pageWidth="827" pageHeight="1169" math="0" shadow="0">
            <root>
                <mxCell id="0"/>
                <mxCell id="1" parent="0"/>
                <mxCell id="6" value="" style="rounded=0;whiteSpace=wrap;html=1;fontSize=16;fillColor=#8C8C8C;" vertex="1" parent="1">
                    <mxGeometry x="120" y="50" width="600" height="80" as="geometry"/>
                </mxCell>
                <mxCell id="2" value="&lt;font style=&quot;font-size: 16px&quot;&gt;Github profile overview&lt;/font&gt;" style="rounded=0;whiteSpace=wrap;html=1;align=left;spacingLeft=15;" vertex="1" parent="1">
                    <mxGeometry x="120" width="600" height="50" as="geometry"/>
                </mxCell>
                <mxCell id="3" value="e.g. TheAwesomeDev" style="rounded=1;whiteSpace=wrap;html=1;fontSize=12;align=left;spacingLeft=14;fontColor=#808080;" vertex="1" parent="1">
                    <mxGeometry x="140" y="86" width="390" height="30" as="geometry"/>
                </mxCell>
                <mxCell id="4" value="Git profile name" style="text;html=1;align=left;verticalAlign=middle;whiteSpace=wrap;rounded=0;fontSize=14;fontColor=#424242;" vertex="1" parent="1">
                    <mxGeometry x="140" y="56" width="126" height="30" as="geometry"/>
                </mxCell>
                <mxCell id="5" value="Show public repositories" style="rounded=1;whiteSpace=wrap;html=1;fontSize=12;" vertex="1" parent="1">
                    <mxGeometry x="540" y="86" width="160" height="30" as="geometry"/>
                </mxCell>
                <mxCell id="7" value="" style="rounded=0;whiteSpace=wrap;html=1;fontSize=12;" vertex="1" parent="1">
                    <mxGeometry x="120" y="130" width="600" height="760" as="geometry"/>
                </mxCell>
                <mxCell id="9" value="" style="rounded=1;whiteSpace=wrap;html=1;fontSize=14;fontColor=#808080;fillColor=#404040;arcSize=3;" vertex="1" parent="1">
                    <mxGeometry x="190" y="200" width="197" height="190" as="geometry"/>
                </mxCell>
                <mxCell id="10" value="[GITHUB_PROFILE_NAME]'s repositories" style="text;html=1;align=left;verticalAlign=middle;whiteSpace=wrap;rounded=0;fontSize=14;fontColor=#999999;" vertex="1" parent="1">
                    <mxGeometry x="140" y="150" width="560" height="30" as="geometry"/>
                </mxCell>
                <mxCell id="11" value="" style="shape=image;verticalLabelPosition=bottom;labelBackgroundColor=#ffffff;verticalAlign=top;aspect=fixed;imageAspect=0;image=data:image/svg+xml,PHN2ZyB4bWxucz0iaHR0cDovL3d3dy53My5vcmcvMjAwMC9zdmciIHdpZHRoPSIzMnB4IiBoZWlnaHQ9IjMycHgiIHZpZXdCb3g9IjAgMCAzMiAzMiI+PHRpdGxlPmZvbGRlcl90eXBlX2dpdGh1YjwvdGl0bGU+PHBhdGggZD0iTTI3LjUsNS41SDE4LjJMMTYuMSw5LjdINC40VjI2LjVIMjkuNlY1LjVabTAsNC4ySDE5LjNsMS4xLTIuMWg3LjFaIiBzdHlsZT0iZmlsbDojOWI5YjliIi8+PHBhdGggZD0iTTMxLDIwLjVBMTAuNSwxMC41LDAsMSwxLDIwLjUsMTAsMTAuNSwxMC41LDAsMCwxLDMxLDIwLjVaIiBzdHlsZT0iZmlsbDojZmZmO2ZpbGwtcnVsZTpldmVub2RkIi8+PHBhdGggZD0iTTIzLjAxMywyNy42YTIuNTA1LDIuNTA1LDAsMCwwLS43MTMtMS45NDRjMi4zMzktLjI2LDQuNzk0LTEuMTQ4LDQuNzk0LTUuMTgxYTQuMDUxLDQuMDUxLDAsMCwwLTEuMDc5LTIuODE4LDMuNzcyLDMuNzcyLDAsMCwwLS4xMDUtMi43NzlzLS44OC0uMjgyLTIuODg0LDEuMDc3YTkuOTM5LDkuOTM5LDAsMCwwLTUuMjU4LDBjLTIuMDA1LTEuMzU5LTIuODg3LTEuMDc3LTIuODg3LTEuMDc3YTMuNzc4LDMuNzc4LDAsMCwwLS4xLDIuNzc5QTQuMDU3LDQuMDU3LDAsMCwwLDEzLjcsMjAuNDdjMCw0LjAyMywyLjQ1MSw0LjkyNCw0Ljc4Myw1LjE4OWEyLjI0OCwyLjI0OCwwLDAsMC0uNjY3LDEuNCwyLjIzNCwyLjIzNCwwLDAsMS0zLjA1NS0uODczLDIuMjA5LDIuMjA5LDAsMCwwLTEuNjA5LTEuMDgycy0xLjAyNS0uMDEzLS4wNzIuNjM5YTIuNzc4LDIuNzc4LDAsMCwxLDEuMTY2LDEuNTM1cy42MTYsMi4wNDMsMy41MzcsMS40MDhjMCwuODc2LjAxNCwxLjUzNy4wMTQsMS43ODZhLjYwNi42MDYsMCwwLDEtLjAzMi4xNzcsMTAuMTc4LDEwLjE3OCwwLDAsMCw1LjI3LDBBLjYwNi42MDYsMCwwLDEsMjMsMzAuNDc2QzIzLDMwLjEzMiwyMy4wMTMsMjksMjMuMDEzLDI3LjZaIiBzdHlsZT0iZmlsbDojMzMzO2ZpbGwtcnVsZTpldmVub2RkIi8+PC9zdmc+;" vertex="1" parent="1">
                    <mxGeometry x="238.5" y="210" width="90" height="90" as="geometry"/>
                </mxCell>
                <mxCell id="12" value="[REPO_NAME]&lt;br&gt;&lt;br&gt;" style="rounded=1;whiteSpace=wrap;html=1;fontSize=14;fontColor=#808080;fillColor=#404040;arcSize=3;align=left;spacing=10;" vertex="1" parent="1">
                    <mxGeometry x="190" y="320" width="197" height="70" as="geometry"/>
                </mxCell>
                <mxCell id="14" value="" style="rounded=1;whiteSpace=wrap;html=1;fontSize=14;fontColor=#808080;fillColor=#404040;arcSize=3;" vertex="1" parent="1">
                    <mxGeometry x="450" y="200" width="197" height="190" as="geometry"/>
                </mxCell>
                <mxCell id="15" value="" style="shape=image;verticalLabelPosition=bottom;labelBackgroundColor=#ffffff;verticalAlign=top;aspect=fixed;imageAspect=0;image=data:image/svg+xml,PHN2ZyB4bWxucz0iaHR0cDovL3d3dy53My5vcmcvMjAwMC9zdmciIHdpZHRoPSIzMnB4IiBoZWlnaHQ9IjMycHgiIHZpZXdCb3g9IjAgMCAzMiAzMiI+PHRpdGxlPmZvbGRlcl90eXBlX2dpdGh1YjwvdGl0bGU+PHBhdGggZD0iTTI3LjUsNS41SDE4LjJMMTYuMSw5LjdINC40VjI2LjVIMjkuNlY1LjVabTAsNC4ySDE5LjNsMS4xLTIuMWg3LjFaIiBzdHlsZT0iZmlsbDojOWI5YjliIi8+PHBhdGggZD0iTTMxLDIwLjVBMTAuNSwxMC41LDAsMSwxLDIwLjUsMTAsMTAuNSwxMC41LDAsMCwxLDMxLDIwLjVaIiBzdHlsZT0iZmlsbDojZmZmO2ZpbGwtcnVsZTpldmVub2RkIi8+PHBhdGggZD0iTTIzLjAxMywyNy42YTIuNTA1LDIuNTA1LDAsMCwwLS43MTMtMS45NDRjMi4zMzktLjI2LDQuNzk0LTEuMTQ4LDQuNzk0LTUuMTgxYTQuMDUxLDQuMDUxLDAsMCwwLTEuMDc5LTIuODE4LDMuNzcyLDMuNzcyLDAsMCwwLS4xMDUtMi43NzlzLS44OC0uMjgyLTIuODg0LDEuMDc3YTkuOTM5LDkuOTM5LDAsMCwwLTUuMjU4LDBjLTIuMDA1LTEuMzU5LTIuODg3LTEuMDc3LTIuODg3LTEuMDc3YTMuNzc4LDMuNzc4LDAsMCwwLS4xLDIuNzc5QTQuMDU3LDQuMDU3LDAsMCwwLDEzLjcsMjAuNDdjMCw0LjAyMywyLjQ1MSw0LjkyNCw0Ljc4Myw1LjE4OWEyLjI0OCwyLjI0OCwwLDAsMC0uNjY3LDEuNCwyLjIzNCwyLjIzNCwwLDAsMS0zLjA1NS0uODczLDIuMjA5LDIuMjA5LDAsMCwwLTEuNjA5LTEuMDgycy0xLjAyNS0uMDEzLS4wNzIuNjM5YTIuNzc4LDIuNzc4LDAsMCwxLDEuMTY2LDEuNTM1cy42MTYsMi4wNDMsMy41MzcsMS40MDhjMCwuODc2LjAxNCwxLjUzNy4wMTQsMS43ODZhLjYwNi42MDYsMCwwLDEtLjAzMi4xNzcsMTAuMTc4LDEwLjE3OCwwLDAsMCw1LjI3LDBBLjYwNi42MDYsMCwwLDEsMjMsMzAuNDc2QzIzLDMwLjEzMiwyMy4wMTMsMjksMjMuMDEzLDI3LjZaIiBzdHlsZT0iZmlsbDojMzMzO2ZpbGwtcnVsZTpldmVub2RkIi8+PC9zdmc+;" vertex="1" parent="1">
                    <mxGeometry x="498.5" y="210" width="90" height="90" as="geometry"/>
                </mxCell>
                <mxCell id="16" value="[REPO_NAME]&lt;br&gt;&lt;br&gt;" style="rounded=1;whiteSpace=wrap;html=1;fontSize=14;fontColor=#808080;fillColor=#404040;arcSize=3;align=left;spacing=10;" vertex="1" parent="1">
                    <mxGeometry x="450" y="320" width="197" height="70" as="geometry"/>
                </mxCell>
                <mxCell id="18" value="" style="rounded=1;whiteSpace=wrap;html=1;fontSize=14;fontColor=#808080;fillColor=#404040;arcSize=3;" vertex="1" parent="1">
                    <mxGeometry x="190" y="415" width="197" height="190" as="geometry"/>
                </mxCell>
                <mxCell id="19" value="" style="shape=image;verticalLabelPosition=bottom;labelBackgroundColor=#ffffff;verticalAlign=top;aspect=fixed;imageAspect=0;image=data:image/svg+xml,PHN2ZyB4bWxucz0iaHR0cDovL3d3dy53My5vcmcvMjAwMC9zdmciIHdpZHRoPSIzMnB4IiBoZWlnaHQ9IjMycHgiIHZpZXdCb3g9IjAgMCAzMiAzMiI+PHRpdGxlPmZvbGRlcl90eXBlX2dpdGh1YjwvdGl0bGU+PHBhdGggZD0iTTI3LjUsNS41SDE4LjJMMTYuMSw5LjdINC40VjI2LjVIMjkuNlY1LjVabTAsNC4ySDE5LjNsMS4xLTIuMWg3LjFaIiBzdHlsZT0iZmlsbDojOWI5YjliIi8+PHBhdGggZD0iTTMxLDIwLjVBMTAuNSwxMC41LDAsMSwxLDIwLjUsMTAsMTAuNSwxMC41LDAsMCwxLDMxLDIwLjVaIiBzdHlsZT0iZmlsbDojZmZmO2ZpbGwtcnVsZTpldmVub2RkIi8+PHBhdGggZD0iTTIzLjAxMywyNy42YTIuNTA1LDIuNTA1LDAsMCwwLS43MTMtMS45NDRjMi4zMzktLjI2LDQuNzk0LTEuMTQ4LDQuNzk0LTUuMTgxYTQuMDUxLDQuMDUxLDAsMCwwLTEuMDc5LTIuODE4LDMuNzcyLDMuNzcyLDAsMCwwLS4xMDUtMi43NzlzLS44OC0uMjgyLTIuODg0LDEuMDc3YTkuOTM5LDkuOTM5LDAsMCwwLTUuMjU4LDBjLTIuMDA1LTEuMzU5LTIuODg3LTEuMDc3LTIuODg3LTEuMDc3YTMuNzc4LDMuNzc4LDAsMCwwLS4xLDIuNzc5QTQuMDU3LDQuMDU3LDAsMCwwLDEzLjcsMjAuNDdjMCw0LjAyMywyLjQ1MSw0LjkyNCw0Ljc4Myw1LjE4OWEyLjI0OCwyLjI0OCwwLDAsMC0uNjY3LDEuNCwyLjIzNCwyLjIzNCwwLDAsMS0zLjA1NS0uODczLDIuMjA5LDIuMjA5LDAsMCwwLTEuNjA5LTEuMDgycy0xLjAyNS0uMDEzLS4wNzIuNjM5YTIuNzc4LDIuNzc4LDAsMCwxLDEuMTY2LDEuNTM1cy42MTYsMi4wNDMsMy41MzcsMS40MDhjMCwuODc2LjAxNCwxLjUzNy4wMTQsMS43ODZhLjYwNi42MDYsMCwwLDEtLjAzMi4xNzcsMTAuMTc4LDEwLjE3OCwwLDAsMCw1LjI3LDBBLjYwNi42MDYsMCwwLDEsMjMsMzAuNDc2QzIzLDMwLjEzMiwyMy4wMTMsMjksMjMuMDEzLDI3LjZaIiBzdHlsZT0iZmlsbDojMzMzO2ZpbGwtcnVsZTpldmVub2RkIi8+PC9zdmc+;" vertex="1" parent="1">
                    <mxGeometry x="238.5" y="425" width="90" height="90" as="geometry"/>
                </mxCell>
                <mxCell id="20" value="[REPO_NAME]&lt;br&gt;&lt;br&gt;" style="rounded=1;whiteSpace=wrap;html=1;fontSize=14;fontColor=#808080;fillColor=#404040;arcSize=3;align=left;spacing=10;" vertex="1" parent="1">
                    <mxGeometry x="190" y="535" width="197" height="70" as="geometry"/>
                </mxCell>
                <mxCell id="21" value="TOPIC 1" style="rounded=1;whiteSpace=wrap;html=1;fontSize=7;fontColor=#999999;fillColor=#404040;arcSize=50;" vertex="1" parent="1">
                    <mxGeometry x="197" y="580" width="43" height="15" as="geometry"/>
                </mxCell>
                <mxCell id="22" value="" style="rounded=1;whiteSpace=wrap;html=1;fontSize=14;fontColor=#808080;fillColor=#404040;arcSize=3;" vertex="1" parent="1">
                    <mxGeometry x="450" y="415" width="197" height="190" as="geometry"/>
                </mxCell>
                <mxCell id="23" value="" style="shape=image;verticalLabelPosition=bottom;labelBackgroundColor=#ffffff;verticalAlign=top;aspect=fixed;imageAspect=0;image=data:image/svg+xml,PHN2ZyB4bWxucz0iaHR0cDovL3d3dy53My5vcmcvMjAwMC9zdmciIHdpZHRoPSIzMnB4IiBoZWlnaHQ9IjMycHgiIHZpZXdCb3g9IjAgMCAzMiAzMiI+PHRpdGxlPmZvbGRlcl90eXBlX2dpdGh1YjwvdGl0bGU+PHBhdGggZD0iTTI3LjUsNS41SDE4LjJMMTYuMSw5LjdINC40VjI2LjVIMjkuNlY1LjVabTAsNC4ySDE5LjNsMS4xLTIuMWg3LjFaIiBzdHlsZT0iZmlsbDojOWI5YjliIi8+PHBhdGggZD0iTTMxLDIwLjVBMTAuNSwxMC41LDAsMSwxLDIwLjUsMTAsMTAuNSwxMC41LDAsMCwxLDMxLDIwLjVaIiBzdHlsZT0iZmlsbDojZmZmO2ZpbGwtcnVsZTpldmVub2RkIi8+PHBhdGggZD0iTTIzLjAxMywyNy42YTIuNTA1LDIuNTA1LDAsMCwwLS43MTMtMS45NDRjMi4zMzktLjI2LDQuNzk0LTEuMTQ4LDQuNzk0LTUuMTgxYTQuMDUxLDQuMDUxLDAsMCwwLTEuMDc5LTIuODE4LDMuNzcyLDMuNzcyLDAsMCwwLS4xMDUtMi43NzlzLS44OC0uMjgyLTIuODg0LDEuMDc3YTkuOTM5LDkuOTM5LDAsMCwwLTUuMjU4LDBjLTIuMDA1LTEuMzU5LTIuODg3LTEuMDc3LTIuODg3LTEuMDc3YTMuNzc4LDMuNzc4LDAsMCwwLS4xLDIuNzc5QTQuMDU3LDQuMDU3LDAsMCwwLDEzLjcsMjAuNDdjMCw0LjAyMywyLjQ1MSw0LjkyNCw0Ljc4Myw1LjE4OWEyLjI0OCwyLjI0OCwwLDAsMC0uNjY3LDEuNCwyLjIzNCwyLjIzNCwwLDAsMS0zLjA1NS0uODczLDIuMjA5LDIuMjA5LDAsMCwwLTEuNjA5LTEuMDgycy0xLjAyNS0uMDEzLS4wNzIuNjM5YTIuNzc4LDIuNzc4LDAsMCwxLDEuMTY2LDEuNTM1cy42MTYsMi4wNDMsMy41MzcsMS40MDhjMCwuODc2LjAxNCwxLjUzNy4wMTQsMS43ODZhLjYwNi42MDYsMCwwLDEtLjAzMi4xNzcsMTAuMTc4LDEwLjE3OCwwLDAsMCw1LjI3LDBBLjYwNi42MDYsMCwwLDEsMjMsMzAuNDc2QzIzLDMwLjEzMiwyMy4wMTMsMjksMjMuMDEzLDI3LjZaIiBzdHlsZT0iZmlsbDojMzMzO2ZpbGwtcnVsZTpldmVub2RkIi8+PC9zdmc+;" vertex="1" parent="1">
                    <mxGeometry x="498.5" y="425" width="90" height="90" as="geometry"/>
                </mxCell>
                <mxCell id="24" value="[REPO_NAME]&lt;br&gt;&lt;br&gt;" style="rounded=1;whiteSpace=wrap;html=1;fontSize=14;fontColor=#808080;fillColor=#404040;arcSize=3;align=left;spacing=10;" vertex="1" parent="1">
                    <mxGeometry x="450" y="535" width="197" height="70" as="geometry"/>
                </mxCell>
                <mxCell id="29" value="TOPIC 2" style="rounded=1;whiteSpace=wrap;html=1;fontSize=7;fontColor=#999999;fillColor=#404040;arcSize=50;" vertex="1" parent="1">
                    <mxGeometry x="250" y="580" width="43" height="15" as="geometry"/>
                </mxCell>
                <mxCell id="30" value="TOPIC 3" style="rounded=1;whiteSpace=wrap;html=1;fontSize=7;fontColor=#999999;fillColor=#404040;arcSize=50;" vertex="1" parent="1">
                    <mxGeometry x="304" y="580" width="43" height="15" as="geometry"/>
                </mxCell>
                <mxCell id="31" value="TOPIC 1" style="rounded=1;whiteSpace=wrap;html=1;fontSize=7;fontColor=#999999;fillColor=#404040;arcSize=50;" vertex="1" parent="1">
                    <mxGeometry x="197" y="365" width="43" height="15" as="geometry"/>
                </mxCell>
                <mxCell id="32" value="TOPIC 1" style="rounded=1;whiteSpace=wrap;html=1;fontSize=7;fontColor=#999999;fillColor=#404040;arcSize=50;" vertex="1" parent="1">
                    <mxGeometry x="457" y="365" width="43" height="15" as="geometry"/>
                </mxCell>
                <mxCell id="33" value="TOPIC 2" style="rounded=1;whiteSpace=wrap;html=1;fontSize=7;fontColor=#999999;fillColor=#404040;arcSize=50;" vertex="1" parent="1">
                    <mxGeometry x="510" y="365" width="43" height="15" as="geometry"/>
                </mxCell>
                <mxCell id="36" value="" style="verticalLabelPosition=bottom;verticalAlign=top;html=1;shape=mxgraph.basic.star;fontSize=7;fontColor=#999925;fillColor=#C7C720;" vertex="1" parent="1">
                    <mxGeometry x="197" y="210" width="15.79" height="15" as="geometry"/>
                </mxCell>
                <mxCell id="37" value="0" style="text;html=1;strokeColor=none;fillColor=none;align=center;verticalAlign=middle;whiteSpace=wrap;rounded=0;fontSize=7;fontColor=#999925;" vertex="1" parent="1">
                    <mxGeometry x="212.79" y="207.5" width="20" height="20" as="geometry"/>
                </mxCell>
                <mxCell id="38" value="" style="verticalLabelPosition=bottom;verticalAlign=top;html=1;shape=mxgraph.basic.star;fontSize=7;fontColor=#999925;fillColor=#C7C720;" vertex="1" parent="1">
                    <mxGeometry x="457" y="210" width="15.79" height="15" as="geometry"/>
                </mxCell>
                <mxCell id="39" value="71" style="text;html=1;strokeColor=none;fillColor=none;align=center;verticalAlign=middle;whiteSpace=wrap;rounded=0;fontSize=7;fontColor=#999925;" vertex="1" parent="1">
                    <mxGeometry x="472.78999999999996" y="207.5" width="20" height="20" as="geometry"/>
                </mxCell>
                <mxCell id="40" value="" style="verticalLabelPosition=bottom;verticalAlign=top;html=1;shape=mxgraph.basic.star;fontSize=7;fontColor=#999925;fillColor=#C7C720;" vertex="1" parent="1">
                    <mxGeometry x="197" y="427.5" width="15.79" height="15" as="geometry"/>
                </mxCell>
                <mxCell id="41" value="15" style="text;html=1;strokeColor=none;fillColor=none;align=center;verticalAlign=middle;whiteSpace=wrap;rounded=0;fontSize=7;fontColor=#999925;" vertex="1" parent="1">
                    <mxGeometry x="212.79" y="425" width="20" height="20" as="geometry"/>
                </mxCell>
                <mxCell id="42" value="" style="verticalLabelPosition=bottom;verticalAlign=top;html=1;shape=mxgraph.basic.star;fontSize=7;fontColor=#999925;fillColor=#C7C720;" vertex="1" parent="1">
                    <mxGeometry x="457" y="427.5" width="15.79" height="15" as="geometry"/>
                </mxCell>
                <mxCell id="43" value="100" style="text;html=1;strokeColor=none;fillColor=none;align=center;verticalAlign=middle;whiteSpace=wrap;rounded=0;fontSize=7;fontColor=#999925;" vertex="1" parent="1">
                    <mxGeometry x="472.78999999999996" y="425" width="20" height="20" as="geometry"/>
                </mxCell>
            </root>
        </mxGraphModel>
    </diagram>
</mxfile>